<mxfile host="app.diagrams.net" modified="2022-02-09T12:27:20.240Z" agent="5.0 (Macintosh; Intel Mac OS X 10_15_7) AppleWebKit/537.36 (KHTML, like Gecko) Chrome/97.0.4692.71 Safari/537.36" etag="RHylw2juy-3oxILQR94P" version="16.5.3" type="github">
  <diagram id="p0Ce_N-w7vnkcQmm3UhF" name="Page-1">
    <mxGraphModel dx="1239" dy="841" grid="1" gridSize="10" guides="1" tooltips="1" connect="1" arrows="1" fold="1" page="1" pageScale="1" pageWidth="827" pageHeight="1169" math="0" shadow="0">
      <root>
        <mxCell id="0" />
        <mxCell id="1" parent="0" />
        <mxCell id="DU6GXDoemrru7d7Wmcjt-11" value="" style="rounded=0;whiteSpace=wrap;html=1;fontSize=18;dashed=1;" vertex="1" parent="1">
          <mxGeometry x="120" y="160" width="170" height="60" as="geometry" />
        </mxCell>
        <mxCell id="DU6GXDoemrru7d7Wmcjt-2" value="&lt;font style=&quot;font-size: 18px;&quot;&gt;Y1&lt;/font&gt;" style="whiteSpace=wrap;html=1;aspect=fixed;fillColor=#f5f5f5;strokeColor=#666666;gradientColor=#b3b3b3;fontSize=18;" vertex="1" parent="1">
          <mxGeometry x="130" y="170" width="40" height="40" as="geometry" />
        </mxCell>
        <mxCell id="DU6GXDoemrru7d7Wmcjt-3" value="&lt;font style=&quot;font-size: 18px;&quot;&gt;Cb1&lt;/font&gt;" style="whiteSpace=wrap;html=1;aspect=fixed;fillColor=#dae8fc;strokeColor=#6c8ebf;gradientColor=#7ea6e0;fontSize=18;" vertex="1" parent="1">
          <mxGeometry x="170" y="170" width="40" height="40" as="geometry" />
        </mxCell>
        <mxCell id="DU6GXDoemrru7d7Wmcjt-4" value="&lt;font style=&quot;font-size: 18px;&quot;&gt;Cr1&lt;/font&gt;" style="whiteSpace=wrap;html=1;aspect=fixed;fillColor=#d5e8d4;strokeColor=#82b366;gradientColor=#97d077;fontSize=18;" vertex="1" parent="1">
          <mxGeometry x="250" y="170" width="40" height="40" as="geometry" />
        </mxCell>
        <mxCell id="DU6GXDoemrru7d7Wmcjt-5" value="&lt;font style=&quot;font-size: 18px&quot;&gt;Y2&lt;/font&gt;" style="whiteSpace=wrap;html=1;aspect=fixed;fillColor=#f5f5f5;strokeColor=#666666;gradientColor=#b3b3b3;fontSize=18;" vertex="1" parent="1">
          <mxGeometry x="210" y="170" width="40" height="40" as="geometry" />
        </mxCell>
        <mxCell id="DU6GXDoemrru7d7Wmcjt-6" value="&lt;font style=&quot;font-size: 18px&quot;&gt;Y3&lt;/font&gt;" style="whiteSpace=wrap;html=1;aspect=fixed;fillColor=#f5f5f5;strokeColor=#666666;gradientColor=#b3b3b3;fontSize=18;" vertex="1" parent="1">
          <mxGeometry x="290" y="170" width="40" height="40" as="geometry" />
        </mxCell>
        <mxCell id="DU6GXDoemrru7d7Wmcjt-7" value="&lt;font style=&quot;font-size: 18px;&quot;&gt;Cb2&lt;/font&gt;" style="whiteSpace=wrap;html=1;aspect=fixed;fillColor=#dae8fc;strokeColor=#6c8ebf;gradientColor=#7ea6e0;fontSize=18;" vertex="1" parent="1">
          <mxGeometry x="330" y="170" width="40" height="40" as="geometry" />
        </mxCell>
        <mxCell id="DU6GXDoemrru7d7Wmcjt-8" value="&lt;font style=&quot;font-size: 18px;&quot;&gt;Cr2&lt;/font&gt;" style="whiteSpace=wrap;html=1;aspect=fixed;fillColor=#d5e8d4;strokeColor=#82b366;gradientColor=#97d077;fontSize=18;" vertex="1" parent="1">
          <mxGeometry x="410" y="170" width="40" height="40" as="geometry" />
        </mxCell>
        <mxCell id="DU6GXDoemrru7d7Wmcjt-9" value="&lt;font style=&quot;font-size: 18px&quot;&gt;Y4&lt;/font&gt;" style="whiteSpace=wrap;html=1;aspect=fixed;fillColor=#f5f5f5;strokeColor=#666666;gradientColor=#b3b3b3;fontSize=18;" vertex="1" parent="1">
          <mxGeometry x="370" y="170" width="40" height="40" as="geometry" />
        </mxCell>
        <mxCell id="DU6GXDoemrru7d7Wmcjt-10" value="YUVY格式（属于YUV422）" style="text;html=1;strokeColor=none;fillColor=none;align=center;verticalAlign=middle;whiteSpace=wrap;rounded=0;fontSize=20;" vertex="1" parent="1">
          <mxGeometry x="120" y="120" width="260" height="30" as="geometry" />
        </mxCell>
        <mxCell id="DU6GXDoemrru7d7Wmcjt-22" value="相邻的Y1、Y2共用Cb1/Cr1；Y3、Y4共用Cb2/Cr2" style="text;html=1;strokeColor=none;fillColor=none;align=left;verticalAlign=middle;whiteSpace=wrap;rounded=0;dashed=1;fontSize=12;" vertex="1" parent="1">
          <mxGeometry x="120" y="220" width="320" height="30" as="geometry" />
        </mxCell>
        <mxCell id="DU6GXDoemrru7d7Wmcjt-23" value="" style="rounded=0;whiteSpace=wrap;html=1;fontSize=18;dashed=1;" vertex="1" parent="1">
          <mxGeometry x="540" y="160" width="170" height="60" as="geometry" />
        </mxCell>
        <mxCell id="DU6GXDoemrru7d7Wmcjt-24" value="&lt;font style=&quot;font-size: 18px;&quot;&gt;Y1&lt;/font&gt;" style="whiteSpace=wrap;html=1;aspect=fixed;fillColor=#f5f5f5;strokeColor=#666666;gradientColor=#b3b3b3;fontSize=18;" vertex="1" parent="1">
          <mxGeometry x="590" y="170" width="40" height="40" as="geometry" />
        </mxCell>
        <mxCell id="DU6GXDoemrru7d7Wmcjt-25" value="&lt;font style=&quot;font-size: 18px;&quot;&gt;Cb1&lt;/font&gt;" style="whiteSpace=wrap;html=1;aspect=fixed;fillColor=#dae8fc;strokeColor=#6c8ebf;gradientColor=#7ea6e0;fontSize=18;" vertex="1" parent="1">
          <mxGeometry x="550" y="170" width="40" height="40" as="geometry" />
        </mxCell>
        <mxCell id="DU6GXDoemrru7d7Wmcjt-26" value="&lt;font style=&quot;font-size: 18px;&quot;&gt;Cr1&lt;/font&gt;" style="whiteSpace=wrap;html=1;aspect=fixed;fillColor=#d5e8d4;strokeColor=#82b366;gradientColor=#97d077;fontSize=18;" vertex="1" parent="1">
          <mxGeometry x="630" y="170" width="40" height="40" as="geometry" />
        </mxCell>
        <mxCell id="DU6GXDoemrru7d7Wmcjt-27" value="&lt;font style=&quot;font-size: 18px&quot;&gt;Y2&lt;/font&gt;" style="whiteSpace=wrap;html=1;aspect=fixed;fillColor=#f5f5f5;strokeColor=#666666;gradientColor=#b3b3b3;fontSize=18;" vertex="1" parent="1">
          <mxGeometry x="670" y="170" width="40" height="40" as="geometry" />
        </mxCell>
        <mxCell id="DU6GXDoemrru7d7Wmcjt-28" value="&lt;font style=&quot;font-size: 18px&quot;&gt;Y3&lt;/font&gt;" style="whiteSpace=wrap;html=1;aspect=fixed;fillColor=#f5f5f5;strokeColor=#666666;gradientColor=#b3b3b3;fontSize=18;" vertex="1" parent="1">
          <mxGeometry x="750" y="170" width="40" height="40" as="geometry" />
        </mxCell>
        <mxCell id="DU6GXDoemrru7d7Wmcjt-29" value="&lt;font style=&quot;font-size: 18px;&quot;&gt;Cb2&lt;/font&gt;" style="whiteSpace=wrap;html=1;aspect=fixed;fillColor=#dae8fc;strokeColor=#6c8ebf;gradientColor=#7ea6e0;fontSize=18;" vertex="1" parent="1">
          <mxGeometry x="710" y="170" width="40" height="40" as="geometry" />
        </mxCell>
        <mxCell id="DU6GXDoemrru7d7Wmcjt-30" value="&lt;font style=&quot;font-size: 18px;&quot;&gt;Cr2&lt;/font&gt;" style="whiteSpace=wrap;html=1;aspect=fixed;fillColor=#d5e8d4;strokeColor=#82b366;gradientColor=#97d077;fontSize=18;" vertex="1" parent="1">
          <mxGeometry x="790" y="170" width="40" height="40" as="geometry" />
        </mxCell>
        <mxCell id="DU6GXDoemrru7d7Wmcjt-31" value="&lt;font style=&quot;font-size: 18px&quot;&gt;Y4&lt;/font&gt;" style="whiteSpace=wrap;html=1;aspect=fixed;fillColor=#f5f5f5;strokeColor=#666666;gradientColor=#b3b3b3;fontSize=18;" vertex="1" parent="1">
          <mxGeometry x="830" y="170" width="40" height="40" as="geometry" />
        </mxCell>
        <mxCell id="DU6GXDoemrru7d7Wmcjt-32" value="UYVY格式（属于YUV422）" style="text;html=1;strokeColor=none;fillColor=none;align=center;verticalAlign=middle;whiteSpace=wrap;rounded=0;fontSize=20;" vertex="1" parent="1">
          <mxGeometry x="540" y="120" width="260" height="30" as="geometry" />
        </mxCell>
        <mxCell id="DU6GXDoemrru7d7Wmcjt-34" value="相邻的Y1、Y2共用Cb1/Cr1；Y3、Y4共用Cb2/Cr2" style="text;html=1;strokeColor=none;fillColor=none;align=left;verticalAlign=middle;whiteSpace=wrap;rounded=0;dashed=1;fontSize=12;" vertex="1" parent="1">
          <mxGeometry x="540" y="220" width="320" height="30" as="geometry" />
        </mxCell>
        <mxCell id="DU6GXDoemrru7d7Wmcjt-36" value="&lt;font style=&quot;font-size: 18px&quot;&gt;Y2&lt;/font&gt;" style="whiteSpace=wrap;html=1;aspect=fixed;fillColor=#f5f5f5;strokeColor=#666666;gradientColor=#b3b3b3;fontSize=18;" vertex="1" parent="1">
          <mxGeometry x="990" y="160" width="40" height="40" as="geometry" />
        </mxCell>
        <mxCell id="DU6GXDoemrru7d7Wmcjt-37" value="&lt;font style=&quot;font-size: 18px;&quot;&gt;Cb1&lt;/font&gt;" style="whiteSpace=wrap;html=1;aspect=fixed;fillColor=#dae8fc;strokeColor=#6c8ebf;gradientColor=#7ea6e0;fontSize=18;" vertex="1" parent="1">
          <mxGeometry x="950" y="240" width="40" height="40" as="geometry" />
        </mxCell>
        <mxCell id="DU6GXDoemrru7d7Wmcjt-38" value="&lt;font style=&quot;font-size: 18px;&quot;&gt;Cr1&lt;/font&gt;" style="whiteSpace=wrap;html=1;aspect=fixed;fillColor=#d5e8d4;strokeColor=#82b366;gradientColor=#97d077;fontSize=18;" vertex="1" parent="1">
          <mxGeometry x="950" y="280" width="40" height="40" as="geometry" />
        </mxCell>
        <mxCell id="DU6GXDoemrru7d7Wmcjt-41" value="&lt;font style=&quot;font-size: 18px;&quot;&gt;Cb2&lt;/font&gt;" style="whiteSpace=wrap;html=1;aspect=fixed;fillColor=#dae8fc;strokeColor=#6c8ebf;gradientColor=#7ea6e0;fontSize=18;" vertex="1" parent="1">
          <mxGeometry x="990" y="240" width="40" height="40" as="geometry" />
        </mxCell>
        <mxCell id="DU6GXDoemrru7d7Wmcjt-42" value="&lt;font style=&quot;font-size: 18px;&quot;&gt;Cr2&lt;/font&gt;" style="whiteSpace=wrap;html=1;aspect=fixed;fillColor=#d5e8d4;strokeColor=#82b366;gradientColor=#97d077;fontSize=18;" vertex="1" parent="1">
          <mxGeometry x="990" y="280" width="40" height="40" as="geometry" />
        </mxCell>
        <mxCell id="DU6GXDoemrru7d7Wmcjt-44" value="YUV422P（属于YUV422）" style="text;html=1;strokeColor=none;fillColor=none;align=left;verticalAlign=middle;whiteSpace=wrap;rounded=0;fontSize=20;" vertex="1" parent="1">
          <mxGeometry x="950" y="120" width="290" height="30" as="geometry" />
        </mxCell>
        <mxCell id="DU6GXDoemrru7d7Wmcjt-45" value="相邻的Y1、Y2共用Cb1/Cr1；Y3、Y4共用Cb2/Cr2" style="text;html=1;strokeColor=none;fillColor=none;align=left;verticalAlign=middle;whiteSpace=wrap;rounded=0;dashed=1;fontSize=12;" vertex="1" parent="1">
          <mxGeometry x="950" y="320" width="320" height="30" as="geometry" />
        </mxCell>
        <mxCell id="DU6GXDoemrru7d7Wmcjt-46" value="&lt;font style=&quot;font-size: 18px;&quot;&gt;Y1&lt;/font&gt;" style="whiteSpace=wrap;html=1;aspect=fixed;fillColor=#f5f5f5;strokeColor=#666666;gradientColor=#b3b3b3;fontSize=18;" vertex="1" parent="1">
          <mxGeometry x="950" y="160" width="40" height="40" as="geometry" />
        </mxCell>
        <mxCell id="DU6GXDoemrru7d7Wmcjt-47" value="&lt;font style=&quot;font-size: 18px&quot;&gt;Y4&lt;/font&gt;" style="whiteSpace=wrap;html=1;aspect=fixed;fillColor=#f5f5f5;strokeColor=#666666;gradientColor=#b3b3b3;fontSize=18;" vertex="1" parent="1">
          <mxGeometry x="1070" y="160" width="40" height="40" as="geometry" />
        </mxCell>
        <mxCell id="DU6GXDoemrru7d7Wmcjt-48" value="&lt;font style=&quot;font-size: 18px&quot;&gt;Y3&lt;/font&gt;" style="whiteSpace=wrap;html=1;aspect=fixed;fillColor=#f5f5f5;strokeColor=#666666;gradientColor=#b3b3b3;fontSize=18;" vertex="1" parent="1">
          <mxGeometry x="1030" y="160" width="40" height="40" as="geometry" />
        </mxCell>
        <mxCell id="DU6GXDoemrru7d7Wmcjt-49" value="&lt;font style=&quot;font-size: 18px&quot;&gt;Y6&lt;/font&gt;" style="whiteSpace=wrap;html=1;aspect=fixed;fillColor=#f5f5f5;strokeColor=#666666;gradientColor=#b3b3b3;fontSize=18;" vertex="1" parent="1">
          <mxGeometry x="1150" y="160" width="40" height="40" as="geometry" />
        </mxCell>
        <mxCell id="DU6GXDoemrru7d7Wmcjt-50" value="&lt;font style=&quot;font-size: 18px&quot;&gt;Y5&lt;/font&gt;" style="whiteSpace=wrap;html=1;aspect=fixed;fillColor=#f5f5f5;strokeColor=#666666;gradientColor=#b3b3b3;fontSize=18;" vertex="1" parent="1">
          <mxGeometry x="1110" y="160" width="40" height="40" as="geometry" />
        </mxCell>
        <mxCell id="DU6GXDoemrru7d7Wmcjt-51" value="&lt;font style=&quot;font-size: 18px&quot;&gt;Y8&lt;/font&gt;" style="whiteSpace=wrap;html=1;aspect=fixed;fillColor=#f5f5f5;strokeColor=#666666;gradientColor=#b3b3b3;fontSize=18;" vertex="1" parent="1">
          <mxGeometry x="1230" y="160" width="40" height="40" as="geometry" />
        </mxCell>
        <mxCell id="DU6GXDoemrru7d7Wmcjt-52" value="&lt;font style=&quot;font-size: 18px&quot;&gt;Y7&lt;/font&gt;" style="whiteSpace=wrap;html=1;aspect=fixed;fillColor=#f5f5f5;strokeColor=#666666;gradientColor=#b3b3b3;fontSize=18;" vertex="1" parent="1">
          <mxGeometry x="1190" y="160" width="40" height="40" as="geometry" />
        </mxCell>
        <mxCell id="DU6GXDoemrru7d7Wmcjt-53" value="&lt;font style=&quot;font-size: 18px&quot;&gt;Y10&lt;/font&gt;" style="whiteSpace=wrap;html=1;aspect=fixed;fillColor=#f5f5f5;strokeColor=#666666;gradientColor=#b3b3b3;fontSize=18;" vertex="1" parent="1">
          <mxGeometry x="990" y="200" width="40" height="40" as="geometry" />
        </mxCell>
        <mxCell id="DU6GXDoemrru7d7Wmcjt-54" value="&lt;font style=&quot;font-size: 18px&quot;&gt;Y9&lt;/font&gt;" style="whiteSpace=wrap;html=1;aspect=fixed;fillColor=#f5f5f5;strokeColor=#666666;gradientColor=#b3b3b3;fontSize=18;" vertex="1" parent="1">
          <mxGeometry x="950" y="200" width="40" height="40" as="geometry" />
        </mxCell>
        <mxCell id="DU6GXDoemrru7d7Wmcjt-55" value="&lt;font style=&quot;font-size: 18px&quot;&gt;Y12&lt;/font&gt;" style="whiteSpace=wrap;html=1;aspect=fixed;fillColor=#f5f5f5;strokeColor=#666666;gradientColor=#b3b3b3;fontSize=18;" vertex="1" parent="1">
          <mxGeometry x="1070" y="200" width="40" height="40" as="geometry" />
        </mxCell>
        <mxCell id="DU6GXDoemrru7d7Wmcjt-56" value="&lt;font style=&quot;font-size: 18px&quot;&gt;Y11&lt;/font&gt;" style="whiteSpace=wrap;html=1;aspect=fixed;fillColor=#f5f5f5;strokeColor=#666666;gradientColor=#b3b3b3;fontSize=18;" vertex="1" parent="1">
          <mxGeometry x="1030" y="200" width="40" height="40" as="geometry" />
        </mxCell>
        <mxCell id="DU6GXDoemrru7d7Wmcjt-57" value="&lt;font style=&quot;font-size: 18px&quot;&gt;Y14&lt;/font&gt;" style="whiteSpace=wrap;html=1;aspect=fixed;fillColor=#f5f5f5;strokeColor=#666666;gradientColor=#b3b3b3;fontSize=18;" vertex="1" parent="1">
          <mxGeometry x="1150" y="200" width="40" height="40" as="geometry" />
        </mxCell>
        <mxCell id="DU6GXDoemrru7d7Wmcjt-58" value="&lt;font style=&quot;font-size: 18px&quot;&gt;Y13&lt;/font&gt;" style="whiteSpace=wrap;html=1;aspect=fixed;fillColor=#f5f5f5;strokeColor=#666666;gradientColor=#b3b3b3;fontSize=18;" vertex="1" parent="1">
          <mxGeometry x="1110" y="200" width="40" height="40" as="geometry" />
        </mxCell>
        <mxCell id="DU6GXDoemrru7d7Wmcjt-59" value="&lt;font style=&quot;font-size: 18px&quot;&gt;Y16&lt;/font&gt;" style="whiteSpace=wrap;html=1;aspect=fixed;fillColor=#f5f5f5;strokeColor=#666666;gradientColor=#b3b3b3;fontSize=18;" vertex="1" parent="1">
          <mxGeometry x="1230" y="200" width="40" height="40" as="geometry" />
        </mxCell>
        <mxCell id="DU6GXDoemrru7d7Wmcjt-60" value="&lt;font style=&quot;font-size: 18px&quot;&gt;Y15&lt;/font&gt;" style="whiteSpace=wrap;html=1;aspect=fixed;fillColor=#f5f5f5;strokeColor=#666666;gradientColor=#b3b3b3;fontSize=18;" vertex="1" parent="1">
          <mxGeometry x="1190" y="200" width="40" height="40" as="geometry" />
        </mxCell>
        <mxCell id="DU6GXDoemrru7d7Wmcjt-61" value="&lt;font style=&quot;font-size: 18px;&quot;&gt;Cb1&lt;/font&gt;" style="whiteSpace=wrap;html=1;aspect=fixed;fillColor=#dae8fc;strokeColor=#6c8ebf;gradientColor=#7ea6e0;fontSize=18;" vertex="1" parent="1">
          <mxGeometry x="1030" y="240" width="40" height="40" as="geometry" />
        </mxCell>
        <mxCell id="DU6GXDoemrru7d7Wmcjt-62" value="&lt;font style=&quot;font-size: 18px;&quot;&gt;Cb2&lt;/font&gt;" style="whiteSpace=wrap;html=1;aspect=fixed;fillColor=#dae8fc;strokeColor=#6c8ebf;gradientColor=#7ea6e0;fontSize=18;" vertex="1" parent="1">
          <mxGeometry x="1070" y="240" width="40" height="40" as="geometry" />
        </mxCell>
        <mxCell id="DU6GXDoemrru7d7Wmcjt-63" value="&lt;font style=&quot;font-size: 18px;&quot;&gt;Cb1&lt;/font&gt;" style="whiteSpace=wrap;html=1;aspect=fixed;fillColor=#dae8fc;strokeColor=#6c8ebf;gradientColor=#7ea6e0;fontSize=18;" vertex="1" parent="1">
          <mxGeometry x="1110" y="240" width="40" height="40" as="geometry" />
        </mxCell>
        <mxCell id="DU6GXDoemrru7d7Wmcjt-64" value="&lt;font style=&quot;font-size: 18px;&quot;&gt;Cb2&lt;/font&gt;" style="whiteSpace=wrap;html=1;aspect=fixed;fillColor=#dae8fc;strokeColor=#6c8ebf;gradientColor=#7ea6e0;fontSize=18;" vertex="1" parent="1">
          <mxGeometry x="1150" y="240" width="40" height="40" as="geometry" />
        </mxCell>
        <mxCell id="DU6GXDoemrru7d7Wmcjt-65" value="&lt;font style=&quot;font-size: 18px;&quot;&gt;Cb1&lt;/font&gt;" style="whiteSpace=wrap;html=1;aspect=fixed;fillColor=#dae8fc;strokeColor=#6c8ebf;gradientColor=#7ea6e0;fontSize=18;" vertex="1" parent="1">
          <mxGeometry x="1190" y="240" width="40" height="40" as="geometry" />
        </mxCell>
        <mxCell id="DU6GXDoemrru7d7Wmcjt-66" value="&lt;font style=&quot;font-size: 18px;&quot;&gt;Cb2&lt;/font&gt;" style="whiteSpace=wrap;html=1;aspect=fixed;fillColor=#dae8fc;strokeColor=#6c8ebf;gradientColor=#7ea6e0;fontSize=18;" vertex="1" parent="1">
          <mxGeometry x="1230" y="240" width="40" height="40" as="geometry" />
        </mxCell>
        <mxCell id="DU6GXDoemrru7d7Wmcjt-67" value="&lt;font style=&quot;font-size: 18px;&quot;&gt;Cr1&lt;/font&gt;" style="whiteSpace=wrap;html=1;aspect=fixed;fillColor=#d5e8d4;strokeColor=#82b366;gradientColor=#97d077;fontSize=18;" vertex="1" parent="1">
          <mxGeometry x="1030" y="280" width="40" height="40" as="geometry" />
        </mxCell>
        <mxCell id="DU6GXDoemrru7d7Wmcjt-68" value="&lt;font style=&quot;font-size: 18px;&quot;&gt;Cr2&lt;/font&gt;" style="whiteSpace=wrap;html=1;aspect=fixed;fillColor=#d5e8d4;strokeColor=#82b366;gradientColor=#97d077;fontSize=18;" vertex="1" parent="1">
          <mxGeometry x="1070" y="280" width="40" height="40" as="geometry" />
        </mxCell>
        <mxCell id="DU6GXDoemrru7d7Wmcjt-69" value="&lt;font style=&quot;font-size: 18px;&quot;&gt;Cr1&lt;/font&gt;" style="whiteSpace=wrap;html=1;aspect=fixed;fillColor=#d5e8d4;strokeColor=#82b366;gradientColor=#97d077;fontSize=18;" vertex="1" parent="1">
          <mxGeometry x="1110" y="280" width="40" height="40" as="geometry" />
        </mxCell>
        <mxCell id="DU6GXDoemrru7d7Wmcjt-70" value="&lt;font style=&quot;font-size: 18px;&quot;&gt;Cr2&lt;/font&gt;" style="whiteSpace=wrap;html=1;aspect=fixed;fillColor=#d5e8d4;strokeColor=#82b366;gradientColor=#97d077;fontSize=18;" vertex="1" parent="1">
          <mxGeometry x="1150" y="280" width="40" height="40" as="geometry" />
        </mxCell>
        <mxCell id="DU6GXDoemrru7d7Wmcjt-71" value="&lt;font style=&quot;font-size: 18px;&quot;&gt;Cr1&lt;/font&gt;" style="whiteSpace=wrap;html=1;aspect=fixed;fillColor=#d5e8d4;strokeColor=#82b366;gradientColor=#97d077;fontSize=18;" vertex="1" parent="1">
          <mxGeometry x="1190" y="280" width="40" height="40" as="geometry" />
        </mxCell>
        <mxCell id="DU6GXDoemrru7d7Wmcjt-72" value="&lt;font style=&quot;font-size: 18px;&quot;&gt;Cr2&lt;/font&gt;" style="whiteSpace=wrap;html=1;aspect=fixed;fillColor=#d5e8d4;strokeColor=#82b366;gradientColor=#97d077;fontSize=18;" vertex="1" parent="1">
          <mxGeometry x="1230" y="280" width="40" height="40" as="geometry" />
        </mxCell>
        <mxCell id="DU6GXDoemrru7d7Wmcjt-73" value="" style="rounded=0;whiteSpace=wrap;html=1;fontSize=18;dashed=1;" vertex="1" parent="1">
          <mxGeometry x="110" y="470" width="100" height="200" as="geometry" />
        </mxCell>
        <mxCell id="DU6GXDoemrru7d7Wmcjt-82" value="YV12/YU12格式（属于YUV420）" style="text;html=1;strokeColor=none;fillColor=none;align=left;verticalAlign=middle;whiteSpace=wrap;rounded=0;fontSize=20;" vertex="1" parent="1">
          <mxGeometry x="107" y="430" width="320" height="30" as="geometry" />
        </mxCell>
        <mxCell id="DU6GXDoemrru7d7Wmcjt-83" value="相邻的Y1、Y2、Y9、Y10共用Cb1/Cr1" style="text;html=1;strokeColor=none;fillColor=none;align=left;verticalAlign=middle;whiteSpace=wrap;rounded=0;dashed=1;fontSize=12;" vertex="1" parent="1">
          <mxGeometry x="110" y="670" width="320" height="30" as="geometry" />
        </mxCell>
        <mxCell id="DU6GXDoemrru7d7Wmcjt-85" value="&lt;font style=&quot;font-size: 18px&quot;&gt;Y2&lt;/font&gt;" style="whiteSpace=wrap;html=1;aspect=fixed;fillColor=#f5f5f5;strokeColor=#666666;gradientColor=#b3b3b3;fontSize=18;" vertex="1" parent="1">
          <mxGeometry x="160" y="490" width="40" height="40" as="geometry" />
        </mxCell>
        <mxCell id="DU6GXDoemrru7d7Wmcjt-86" value="&lt;font style=&quot;font-size: 18px;&quot;&gt;Cb1&lt;/font&gt;" style="whiteSpace=wrap;html=1;aspect=fixed;fillColor=#dae8fc;strokeColor=#6c8ebf;gradientColor=#7ea6e0;fontSize=18;" vertex="1" parent="1">
          <mxGeometry x="120" y="570" width="40" height="40" as="geometry" />
        </mxCell>
        <mxCell id="DU6GXDoemrru7d7Wmcjt-87" value="&lt;font style=&quot;font-size: 18px;&quot;&gt;Cr1&lt;/font&gt;" style="whiteSpace=wrap;html=1;aspect=fixed;fillColor=#d5e8d4;strokeColor=#82b366;gradientColor=#97d077;fontSize=18;" vertex="1" parent="1">
          <mxGeometry x="120" y="610" width="40" height="40" as="geometry" />
        </mxCell>
        <mxCell id="DU6GXDoemrru7d7Wmcjt-88" value="&lt;font style=&quot;font-size: 18px;&quot;&gt;Cb2&lt;/font&gt;" style="whiteSpace=wrap;html=1;aspect=fixed;fillColor=#dae8fc;strokeColor=#6c8ebf;gradientColor=#7ea6e0;fontSize=18;" vertex="1" parent="1">
          <mxGeometry x="227" y="580" width="40" height="40" as="geometry" />
        </mxCell>
        <mxCell id="DU6GXDoemrru7d7Wmcjt-89" value="&lt;font style=&quot;font-size: 18px;&quot;&gt;Cr2&lt;/font&gt;" style="whiteSpace=wrap;html=1;aspect=fixed;fillColor=#d5e8d4;strokeColor=#82b366;gradientColor=#97d077;fontSize=18;" vertex="1" parent="1">
          <mxGeometry x="227" y="620" width="40" height="40" as="geometry" />
        </mxCell>
        <mxCell id="DU6GXDoemrru7d7Wmcjt-91" value="&lt;font style=&quot;font-size: 18px;&quot;&gt;Y1&lt;/font&gt;" style="whiteSpace=wrap;html=1;aspect=fixed;fillColor=#f5f5f5;strokeColor=#666666;gradientColor=#b3b3b3;fontSize=18;" vertex="1" parent="1">
          <mxGeometry x="120" y="490" width="40" height="40" as="geometry" />
        </mxCell>
        <mxCell id="DU6GXDoemrru7d7Wmcjt-92" value="&lt;font style=&quot;font-size: 18px&quot;&gt;Y4&lt;/font&gt;" style="whiteSpace=wrap;html=1;aspect=fixed;fillColor=#f5f5f5;strokeColor=#666666;gradientColor=#b3b3b3;fontSize=18;" vertex="1" parent="1">
          <mxGeometry x="307" y="500" width="40" height="40" as="geometry" />
        </mxCell>
        <mxCell id="DU6GXDoemrru7d7Wmcjt-93" value="&lt;font style=&quot;font-size: 18px&quot;&gt;Y3&lt;/font&gt;" style="whiteSpace=wrap;html=1;aspect=fixed;fillColor=#f5f5f5;strokeColor=#666666;gradientColor=#b3b3b3;fontSize=18;" vertex="1" parent="1">
          <mxGeometry x="267" y="500" width="40" height="40" as="geometry" />
        </mxCell>
        <mxCell id="DU6GXDoemrru7d7Wmcjt-94" value="&lt;font style=&quot;font-size: 18px&quot;&gt;Y6&lt;/font&gt;" style="whiteSpace=wrap;html=1;aspect=fixed;fillColor=#f5f5f5;strokeColor=#666666;gradientColor=#b3b3b3;fontSize=18;" vertex="1" parent="1">
          <mxGeometry x="387" y="500" width="40" height="40" as="geometry" />
        </mxCell>
        <mxCell id="DU6GXDoemrru7d7Wmcjt-95" value="&lt;font style=&quot;font-size: 18px&quot;&gt;Y5&lt;/font&gt;" style="whiteSpace=wrap;html=1;aspect=fixed;fillColor=#f5f5f5;strokeColor=#666666;gradientColor=#b3b3b3;fontSize=18;" vertex="1" parent="1">
          <mxGeometry x="347" y="500" width="40" height="40" as="geometry" />
        </mxCell>
        <mxCell id="DU6GXDoemrru7d7Wmcjt-96" value="&lt;font style=&quot;font-size: 18px&quot;&gt;Y8&lt;/font&gt;" style="whiteSpace=wrap;html=1;aspect=fixed;fillColor=#f5f5f5;strokeColor=#666666;gradientColor=#b3b3b3;fontSize=18;" vertex="1" parent="1">
          <mxGeometry x="467" y="500" width="40" height="40" as="geometry" />
        </mxCell>
        <mxCell id="DU6GXDoemrru7d7Wmcjt-97" value="&lt;font style=&quot;font-size: 18px&quot;&gt;Y7&lt;/font&gt;" style="whiteSpace=wrap;html=1;aspect=fixed;fillColor=#f5f5f5;strokeColor=#666666;gradientColor=#b3b3b3;fontSize=18;" vertex="1" parent="1">
          <mxGeometry x="427" y="500" width="40" height="40" as="geometry" />
        </mxCell>
        <mxCell id="DU6GXDoemrru7d7Wmcjt-98" value="&lt;font style=&quot;font-size: 18px&quot;&gt;Y10&lt;/font&gt;" style="whiteSpace=wrap;html=1;aspect=fixed;fillColor=#f5f5f5;strokeColor=#666666;gradientColor=#b3b3b3;fontSize=18;" vertex="1" parent="1">
          <mxGeometry x="160" y="530" width="40" height="40" as="geometry" />
        </mxCell>
        <mxCell id="DU6GXDoemrru7d7Wmcjt-99" value="&lt;font style=&quot;font-size: 18px&quot;&gt;Y9&lt;/font&gt;" style="whiteSpace=wrap;html=1;aspect=fixed;fillColor=#f5f5f5;strokeColor=#666666;gradientColor=#b3b3b3;fontSize=18;" vertex="1" parent="1">
          <mxGeometry x="120" y="530" width="40" height="40" as="geometry" />
        </mxCell>
        <mxCell id="DU6GXDoemrru7d7Wmcjt-100" value="&lt;font style=&quot;font-size: 18px&quot;&gt;Y12&lt;/font&gt;" style="whiteSpace=wrap;html=1;aspect=fixed;fillColor=#f5f5f5;strokeColor=#666666;gradientColor=#b3b3b3;fontSize=18;" vertex="1" parent="1">
          <mxGeometry x="307" y="540" width="40" height="40" as="geometry" />
        </mxCell>
        <mxCell id="DU6GXDoemrru7d7Wmcjt-101" value="&lt;font style=&quot;font-size: 18px&quot;&gt;Y11&lt;/font&gt;" style="whiteSpace=wrap;html=1;aspect=fixed;fillColor=#f5f5f5;strokeColor=#666666;gradientColor=#b3b3b3;fontSize=18;" vertex="1" parent="1">
          <mxGeometry x="267" y="540" width="40" height="40" as="geometry" />
        </mxCell>
        <mxCell id="DU6GXDoemrru7d7Wmcjt-102" value="&lt;font style=&quot;font-size: 18px&quot;&gt;Y14&lt;/font&gt;" style="whiteSpace=wrap;html=1;aspect=fixed;fillColor=#f5f5f5;strokeColor=#666666;gradientColor=#b3b3b3;fontSize=18;" vertex="1" parent="1">
          <mxGeometry x="387" y="540" width="40" height="40" as="geometry" />
        </mxCell>
        <mxCell id="DU6GXDoemrru7d7Wmcjt-103" value="&lt;font style=&quot;font-size: 18px&quot;&gt;Y13&lt;/font&gt;" style="whiteSpace=wrap;html=1;aspect=fixed;fillColor=#f5f5f5;strokeColor=#666666;gradientColor=#b3b3b3;fontSize=18;" vertex="1" parent="1">
          <mxGeometry x="347" y="540" width="40" height="40" as="geometry" />
        </mxCell>
        <mxCell id="DU6GXDoemrru7d7Wmcjt-104" value="&lt;font style=&quot;font-size: 18px&quot;&gt;Y16&lt;/font&gt;" style="whiteSpace=wrap;html=1;aspect=fixed;fillColor=#f5f5f5;strokeColor=#666666;gradientColor=#b3b3b3;fontSize=18;" vertex="1" parent="1">
          <mxGeometry x="467" y="540" width="40" height="40" as="geometry" />
        </mxCell>
        <mxCell id="DU6GXDoemrru7d7Wmcjt-105" value="&lt;font style=&quot;font-size: 18px&quot;&gt;Y15&lt;/font&gt;" style="whiteSpace=wrap;html=1;aspect=fixed;fillColor=#f5f5f5;strokeColor=#666666;gradientColor=#b3b3b3;fontSize=18;" vertex="1" parent="1">
          <mxGeometry x="427" y="540" width="40" height="40" as="geometry" />
        </mxCell>
        <mxCell id="DU6GXDoemrru7d7Wmcjt-106" value="&lt;font style=&quot;font-size: 18px&quot;&gt;Cb3&lt;/font&gt;" style="whiteSpace=wrap;html=1;aspect=fixed;fillColor=#dae8fc;strokeColor=#6c8ebf;gradientColor=#7ea6e0;fontSize=18;" vertex="1" parent="1">
          <mxGeometry x="267" y="580" width="40" height="40" as="geometry" />
        </mxCell>
        <mxCell id="DU6GXDoemrru7d7Wmcjt-107" value="&lt;font style=&quot;font-size: 18px&quot;&gt;Cb4&lt;/font&gt;" style="whiteSpace=wrap;html=1;aspect=fixed;fillColor=#dae8fc;strokeColor=#6c8ebf;gradientColor=#7ea6e0;fontSize=18;" vertex="1" parent="1">
          <mxGeometry x="307" y="580" width="40" height="40" as="geometry" />
        </mxCell>
        <mxCell id="DU6GXDoemrru7d7Wmcjt-112" value="&lt;font style=&quot;font-size: 18px&quot;&gt;Cr3&lt;/font&gt;" style="whiteSpace=wrap;html=1;aspect=fixed;fillColor=#d5e8d4;strokeColor=#82b366;gradientColor=#97d077;fontSize=18;" vertex="1" parent="1">
          <mxGeometry x="267" y="620" width="40" height="40" as="geometry" />
        </mxCell>
        <mxCell id="DU6GXDoemrru7d7Wmcjt-113" value="&lt;font style=&quot;font-size: 18px&quot;&gt;Cr4&lt;/font&gt;" style="whiteSpace=wrap;html=1;aspect=fixed;fillColor=#d5e8d4;strokeColor=#82b366;gradientColor=#97d077;fontSize=18;" vertex="1" parent="1">
          <mxGeometry x="307" y="620" width="40" height="40" as="geometry" />
        </mxCell>
        <mxCell id="DU6GXDoemrru7d7Wmcjt-119" value="" style="rounded=0;whiteSpace=wrap;html=1;fontSize=18;dashed=1;" vertex="1" parent="1">
          <mxGeometry x="593" y="470" width="100" height="160" as="geometry" />
        </mxCell>
        <mxCell id="DU6GXDoemrru7d7Wmcjt-120" value="YV12/YU12格式（属于YUV420）" style="text;html=1;strokeColor=none;fillColor=none;align=left;verticalAlign=middle;whiteSpace=wrap;rounded=0;fontSize=20;" vertex="1" parent="1">
          <mxGeometry x="590" y="430" width="320" height="30" as="geometry" />
        </mxCell>
        <mxCell id="DU6GXDoemrru7d7Wmcjt-121" value="相邻的Y1、Y2、Y9、Y10共用Cb1/Cr1" style="text;html=1;strokeColor=none;fillColor=none;align=left;verticalAlign=middle;whiteSpace=wrap;rounded=0;dashed=1;fontSize=12;" vertex="1" parent="1">
          <mxGeometry x="593" y="630" width="320" height="30" as="geometry" />
        </mxCell>
        <mxCell id="DU6GXDoemrru7d7Wmcjt-122" value="&lt;font style=&quot;font-size: 18px&quot;&gt;Y2&lt;/font&gt;" style="whiteSpace=wrap;html=1;aspect=fixed;fillColor=#f5f5f5;strokeColor=#666666;gradientColor=#b3b3b3;fontSize=18;" vertex="1" parent="1">
          <mxGeometry x="643" y="490" width="40" height="40" as="geometry" />
        </mxCell>
        <mxCell id="DU6GXDoemrru7d7Wmcjt-123" value="&lt;font style=&quot;font-size: 18px;&quot;&gt;Cb1&lt;/font&gt;" style="whiteSpace=wrap;html=1;aspect=fixed;fillColor=#dae8fc;strokeColor=#6c8ebf;gradientColor=#7ea6e0;fontSize=18;" vertex="1" parent="1">
          <mxGeometry x="603" y="570" width="40" height="40" as="geometry" />
        </mxCell>
        <mxCell id="DU6GXDoemrru7d7Wmcjt-124" value="&lt;font style=&quot;font-size: 18px;&quot;&gt;Cr1&lt;/font&gt;" style="whiteSpace=wrap;html=1;aspect=fixed;fillColor=#d5e8d4;strokeColor=#82b366;gradientColor=#97d077;fontSize=18;" vertex="1" parent="1">
          <mxGeometry x="643" y="570" width="40" height="40" as="geometry" />
        </mxCell>
        <mxCell id="DU6GXDoemrru7d7Wmcjt-125" value="&lt;font style=&quot;font-size: 18px;&quot;&gt;Cb2&lt;/font&gt;" style="whiteSpace=wrap;html=1;aspect=fixed;fillColor=#dae8fc;strokeColor=#6c8ebf;gradientColor=#7ea6e0;fontSize=18;" vertex="1" parent="1">
          <mxGeometry x="710" y="570" width="40" height="40" as="geometry" />
        </mxCell>
        <mxCell id="DU6GXDoemrru7d7Wmcjt-126" value="&lt;font style=&quot;font-size: 18px;&quot;&gt;Cr2&lt;/font&gt;" style="whiteSpace=wrap;html=1;aspect=fixed;fillColor=#d5e8d4;strokeColor=#82b366;gradientColor=#97d077;fontSize=18;" vertex="1" parent="1">
          <mxGeometry x="750" y="570" width="40" height="40" as="geometry" />
        </mxCell>
        <mxCell id="DU6GXDoemrru7d7Wmcjt-127" value="&lt;font style=&quot;font-size: 18px;&quot;&gt;Y1&lt;/font&gt;" style="whiteSpace=wrap;html=1;aspect=fixed;fillColor=#f5f5f5;strokeColor=#666666;gradientColor=#b3b3b3;fontSize=18;" vertex="1" parent="1">
          <mxGeometry x="603" y="490" width="40" height="40" as="geometry" />
        </mxCell>
        <mxCell id="DU6GXDoemrru7d7Wmcjt-128" value="&lt;font style=&quot;font-size: 18px&quot;&gt;Y4&lt;/font&gt;" style="whiteSpace=wrap;html=1;aspect=fixed;fillColor=#f5f5f5;strokeColor=#666666;gradientColor=#b3b3b3;fontSize=18;" vertex="1" parent="1">
          <mxGeometry x="750" y="490" width="40" height="40" as="geometry" />
        </mxCell>
        <mxCell id="DU6GXDoemrru7d7Wmcjt-129" value="&lt;font style=&quot;font-size: 18px&quot;&gt;Y3&lt;/font&gt;" style="whiteSpace=wrap;html=1;aspect=fixed;fillColor=#f5f5f5;strokeColor=#666666;gradientColor=#b3b3b3;fontSize=18;" vertex="1" parent="1">
          <mxGeometry x="710" y="490" width="40" height="40" as="geometry" />
        </mxCell>
        <mxCell id="DU6GXDoemrru7d7Wmcjt-130" value="&lt;font style=&quot;font-size: 18px&quot;&gt;Y6&lt;/font&gt;" style="whiteSpace=wrap;html=1;aspect=fixed;fillColor=#f5f5f5;strokeColor=#666666;gradientColor=#b3b3b3;fontSize=18;" vertex="1" parent="1">
          <mxGeometry x="830" y="490" width="40" height="40" as="geometry" />
        </mxCell>
        <mxCell id="DU6GXDoemrru7d7Wmcjt-131" value="&lt;font style=&quot;font-size: 18px&quot;&gt;Y5&lt;/font&gt;" style="whiteSpace=wrap;html=1;aspect=fixed;fillColor=#f5f5f5;strokeColor=#666666;gradientColor=#b3b3b3;fontSize=18;" vertex="1" parent="1">
          <mxGeometry x="790" y="490" width="40" height="40" as="geometry" />
        </mxCell>
        <mxCell id="DU6GXDoemrru7d7Wmcjt-132" value="&lt;font style=&quot;font-size: 18px&quot;&gt;Y8&lt;/font&gt;" style="whiteSpace=wrap;html=1;aspect=fixed;fillColor=#f5f5f5;strokeColor=#666666;gradientColor=#b3b3b3;fontSize=18;" vertex="1" parent="1">
          <mxGeometry x="910" y="490" width="40" height="40" as="geometry" />
        </mxCell>
        <mxCell id="DU6GXDoemrru7d7Wmcjt-133" value="&lt;font style=&quot;font-size: 18px&quot;&gt;Y7&lt;/font&gt;" style="whiteSpace=wrap;html=1;aspect=fixed;fillColor=#f5f5f5;strokeColor=#666666;gradientColor=#b3b3b3;fontSize=18;" vertex="1" parent="1">
          <mxGeometry x="870" y="490" width="40" height="40" as="geometry" />
        </mxCell>
        <mxCell id="DU6GXDoemrru7d7Wmcjt-134" value="&lt;font style=&quot;font-size: 18px&quot;&gt;Y10&lt;/font&gt;" style="whiteSpace=wrap;html=1;aspect=fixed;fillColor=#f5f5f5;strokeColor=#666666;gradientColor=#b3b3b3;fontSize=18;" vertex="1" parent="1">
          <mxGeometry x="643" y="530" width="40" height="40" as="geometry" />
        </mxCell>
        <mxCell id="DU6GXDoemrru7d7Wmcjt-135" value="&lt;font style=&quot;font-size: 18px&quot;&gt;Y9&lt;/font&gt;" style="whiteSpace=wrap;html=1;aspect=fixed;fillColor=#f5f5f5;strokeColor=#666666;gradientColor=#b3b3b3;fontSize=18;" vertex="1" parent="1">
          <mxGeometry x="603" y="530" width="40" height="40" as="geometry" />
        </mxCell>
        <mxCell id="DU6GXDoemrru7d7Wmcjt-136" value="&lt;font style=&quot;font-size: 18px&quot;&gt;Y12&lt;/font&gt;" style="whiteSpace=wrap;html=1;aspect=fixed;fillColor=#f5f5f5;strokeColor=#666666;gradientColor=#b3b3b3;fontSize=18;" vertex="1" parent="1">
          <mxGeometry x="750" y="530" width="40" height="40" as="geometry" />
        </mxCell>
        <mxCell id="DU6GXDoemrru7d7Wmcjt-137" value="&lt;font style=&quot;font-size: 18px&quot;&gt;Y11&lt;/font&gt;" style="whiteSpace=wrap;html=1;aspect=fixed;fillColor=#f5f5f5;strokeColor=#666666;gradientColor=#b3b3b3;fontSize=18;" vertex="1" parent="1">
          <mxGeometry x="710" y="530" width="40" height="40" as="geometry" />
        </mxCell>
        <mxCell id="DU6GXDoemrru7d7Wmcjt-138" value="&lt;font style=&quot;font-size: 18px&quot;&gt;Y14&lt;/font&gt;" style="whiteSpace=wrap;html=1;aspect=fixed;fillColor=#f5f5f5;strokeColor=#666666;gradientColor=#b3b3b3;fontSize=18;" vertex="1" parent="1">
          <mxGeometry x="830" y="530" width="40" height="40" as="geometry" />
        </mxCell>
        <mxCell id="DU6GXDoemrru7d7Wmcjt-139" value="&lt;font style=&quot;font-size: 18px&quot;&gt;Y13&lt;/font&gt;" style="whiteSpace=wrap;html=1;aspect=fixed;fillColor=#f5f5f5;strokeColor=#666666;gradientColor=#b3b3b3;fontSize=18;" vertex="1" parent="1">
          <mxGeometry x="790" y="530" width="40" height="40" as="geometry" />
        </mxCell>
        <mxCell id="DU6GXDoemrru7d7Wmcjt-140" value="&lt;font style=&quot;font-size: 18px&quot;&gt;Y16&lt;/font&gt;" style="whiteSpace=wrap;html=1;aspect=fixed;fillColor=#f5f5f5;strokeColor=#666666;gradientColor=#b3b3b3;fontSize=18;" vertex="1" parent="1">
          <mxGeometry x="910" y="530" width="40" height="40" as="geometry" />
        </mxCell>
        <mxCell id="DU6GXDoemrru7d7Wmcjt-141" value="&lt;font style=&quot;font-size: 18px&quot;&gt;Y15&lt;/font&gt;" style="whiteSpace=wrap;html=1;aspect=fixed;fillColor=#f5f5f5;strokeColor=#666666;gradientColor=#b3b3b3;fontSize=18;" vertex="1" parent="1">
          <mxGeometry x="870" y="530" width="40" height="40" as="geometry" />
        </mxCell>
        <mxCell id="DU6GXDoemrru7d7Wmcjt-154" value="&lt;font style=&quot;font-size: 18px&quot;&gt;Cb3&lt;/font&gt;" style="whiteSpace=wrap;html=1;aspect=fixed;fillColor=#dae8fc;strokeColor=#6c8ebf;gradientColor=#7ea6e0;fontSize=18;" vertex="1" parent="1">
          <mxGeometry x="790" y="570" width="40" height="40" as="geometry" />
        </mxCell>
        <mxCell id="DU6GXDoemrru7d7Wmcjt-156" value="&lt;font style=&quot;font-size: 18px&quot;&gt;Cb4&lt;/font&gt;" style="whiteSpace=wrap;html=1;aspect=fixed;fillColor=#dae8fc;strokeColor=#6c8ebf;gradientColor=#7ea6e0;fontSize=18;" vertex="1" parent="1">
          <mxGeometry x="870" y="570" width="40" height="40" as="geometry" />
        </mxCell>
        <mxCell id="DU6GXDoemrru7d7Wmcjt-157" value="&lt;font style=&quot;font-size: 18px&quot;&gt;Cr4&lt;/font&gt;" style="whiteSpace=wrap;html=1;aspect=fixed;fillColor=#d5e8d4;strokeColor=#82b366;gradientColor=#97d077;fontSize=18;" vertex="1" parent="1">
          <mxGeometry x="910" y="570" width="40" height="40" as="geometry" />
        </mxCell>
        <mxCell id="DU6GXDoemrru7d7Wmcjt-158" value="&lt;font style=&quot;font-size: 18px&quot;&gt;Cr3&lt;/font&gt;" style="whiteSpace=wrap;html=1;aspect=fixed;fillColor=#d5e8d4;strokeColor=#82b366;gradientColor=#97d077;fontSize=18;" vertex="1" parent="1">
          <mxGeometry x="830" y="570" width="40" height="40" as="geometry" />
        </mxCell>
      </root>
    </mxGraphModel>
  </diagram>
</mxfile>
